<?xml version="1.0" standalone="no"?>
<!DOCTYPE svg PUBLIC "-//W3C//DTD SVG 20010904//EN"
 "http://www.w3.org/TR/2001/REC-SVG-20010904/DTD/svg10.dtd">
<svg version="1.0" xmlns="http://www.w3.org/2000/svg"
 width="512.000000pt" height="512.000000pt" viewBox="0 0 512.000000 512.000000"
 preserveAspectRatio="xMidYMid meet">

<g transform="translate(0.000000,512.000000) scale(0.100000,-0.100000)"
fill="#000000" stroke="none">
<path d="M1570 4454 c-675 -92 -1133 -500 -1260 -1124 -27 -134 -37 -330 -21
-441 30 -212 117 -428 242 -603 113 -159 303 -333 442 -406 53 -28 66 -52 92
-176 20 -91 24 -296 7 -363 -21 -87 10 -98 113 -41 152 84 331 228 422 340
l48 59 68 0 68 1 -15 27 c-29 58 -148 398 -175 506 -141 545 44 1039 518 1377
99 71 284 167 406 210 175 61 431 110 581 110 l78 0 -39 41 c-243 251 -609
429 -996 484 -132 19 -437 18 -579 -1z"/>
<path d="M3110 3853 c-306 -21 -529 -80 -759 -198 -550 -283 -811 -799 -685
-1355 32 -143 143 -441 216 -582 75 -145 306 -338 525 -440 256 -118 593 -188
911 -188 l134 0 96 -101 c108 -114 262 -234 381 -297 68 -37 84 -41 102 -32
17 10 20 18 15 43 -17 83 -18 274 -2 366 24 136 42 171 108 208 138 78 301
226 413 375 104 139 186 307 231 476 38 141 45 377 16 547 -50 290 -168 534
-354 731 -313 330 -786 487 -1348 447z"/>
</g>
</svg>
