<?xml version="1.0" standalone="no"?>
<!DOCTYPE svg PUBLIC "-//W3C//DTD SVG 20010904//EN"
 "http://www.w3.org/TR/2001/REC-SVG-20010904/DTD/svg10.dtd">
<svg version="1.0" xmlns="http://www.w3.org/2000/svg"
 width="512.000000pt" height="512.000000pt" viewBox="0 0 512.000000 512.000000"
 preserveAspectRatio="xMidYMid meet">

<g transform="translate(0.000000,512.000000) scale(0.100000,-0.100000)"
fill="#000000" stroke="none">
<path d="M2509 4627 c-20 -8 -49 -23 -65 -35 -16 -11 -565 -558 -1221 -1214
-843 -843 -1197 -1204 -1208 -1230 -19 -47 -19 -89 0 -135 21 -50 42 -72 90
-94 49 -23 94 -24 143 -4 26 11 372 351 1175 1153 l1137 1137 1138 -1137 c802
-802 1148 -1142 1174 -1153 49 -20 94 -19 143 4 48 22 69 44 90 94 19 46 19
88 0 135 -11 26 -202 224 -620 642 l-605 605 0 405 c0 450 -1 456 -69 513 -80
67 -217 39 -268 -56 -15 -27 -18 -68 -21 -266 l-4 -234 -421 421 c-232 231
-436 427 -452 435 -47 23 -96 28 -136 14z"/>
<path d="M2500 3919 c-49 -14 -1939 -1902 -1973 -1969 -22 -44 -22 -52 -25
-539 -2 -296 1 -520 7 -559 30 -192 177 -337 371 -363 42 -6 273 -9 558 -7
466 4 489 5 543 25 118 44 199 119 252 231 l32 67 6 420 c3 252 10 432 16 451
42 121 163 217 273 218 85 0 205 -77 247 -158 34 -66 37 -97 42 -511 l6 -420
32 -67 c53 -113 135 -187 259 -234 45 -17 93 -18 536 -22 286 -2 516 1 558 7
191 26 335 164 370 353 7 37 10 239 8 560 -3 458 -5 507 -21 543 -13 28 -291
313 -960 983 -518 518 -958 954 -977 967 -41 29 -110 39 -160 24z"/>
</g>
</svg>
